<?xml version="1.0" encoding="UTF-8"?>
<svg version="1.1" xmlns="http://www.w3.org/2000/svg" width="332" height="196">
<path d="M0 0 C3.96 0 7.92 0 12 0 C12.33 0.66 12.66 1.32 13 2 C13.55816406 1.67644531 14.11632813 1.35289063 14.69140625 1.01953125 C18.65303066 -0.73001861 22.74932443 -0.49152763 27 0 C28.6829392 0.97236487 30.35443434 1.96564444 32 3 C34.65245602 2.33903214 34.65245602 2.33903214 37 1 C42.22581604 -0.74193868 47.8731292 -0.95030398 52.9375 1.3125 C57.75 5.25 57.75 5.25 59 9 C59.08291953 10.9920303 59.10738177 12.98673713 59.09765625 14.98046875 C59.09443359 16.14384766 59.09121094 17.30722656 59.08789062 18.50585938 C59.07532227 20.32827148 59.07532227 20.32827148 59.0625 22.1875 C59.05798828 23.41404297 59.05347656 24.64058594 59.04882812 25.90429688 C59.03703076 28.93621865 59.01909514 31.9681154 59 35 C54.71 35 50.42 35 46 35 C45.93941406 33.42347656 45.87882812 31.84695312 45.81640625 30.22265625 C45.73202013 28.16926057 45.64737117 26.11587569 45.5625 24.0625 C45.52318359 23.02158203 45.48386719 21.98066406 45.44335938 20.90820312 C45.40146484 19.91884766 45.35957031 18.92949219 45.31640625 17.91015625 C45.26141968 16.53549194 45.26141968 16.53549194 45.20532227 15.13305664 C45.22996136 13.0179272 45.22996136 13.0179272 44 12 C41.54207971 11.66656449 41.54207971 11.66656449 39 12 C36.91254955 15.13117567 36.72346004 16.06946224 36.5859375 19.66796875 C36.54726562 20.56064453 36.50859375 21.45332031 36.46875 22.37304688 C36.42234375 23.76620117 36.42234375 23.76620117 36.375 25.1875 C36.33632812 26.12787109 36.29765625 27.06824219 36.2578125 28.03710938 C36.16357326 30.35775066 36.08069877 32.67884841 36 35 C31.71 35 27.42 35 23 35 C22.93941406 33.42347656 22.87882812 31.84695312 22.81640625 30.22265625 C22.73202013 28.16926057 22.64737117 26.11587569 22.5625 24.0625 C22.52318359 23.02158203 22.48386719 21.98066406 22.44335938 20.90820312 C22.40146484 19.91884766 22.35957031 18.92949219 22.31640625 17.91015625 C22.27974854 16.99371338 22.24309082 16.07727051 22.20532227 15.13305664 C22.22996136 13.0179272 22.22996136 13.0179272 21 12 C18.69 12 16.38 12 14 12 C13.67 19.59 13.34 27.18 13 35 C8.71 35 4.42 35 0 35 C0 23.45 0 11.9 0 0 Z " fill="#FEFEFE" transform="translate(49,33)"/>
<path d="M0 0 C3.96 0 7.92 0 12 0 C12.33 0.66 12.66 1.32 13 2 C13.55816406 1.67644531 14.11632812 1.35289063 14.69140625 1.01953125 C18.65303066 -0.73001861 22.74932443 -0.49152763 27 0 C28.6829392 0.97236487 30.35443434 1.96564444 32 3 C34.65245602 2.33903214 34.65245602 2.33903214 37 1 C42.61453019 -0.87151006 48.07100571 -0.91188821 53.4375 1.625 C57.06382266 4.98598198 58.81507837 7.79728499 59.23754883 12.82958984 C59.29517359 16.1829954 59.26129727 19.5219547 59.1875 22.875 C59.16719727 24.62296875 59.16719727 24.62296875 59.14648438 26.40625 C59.11126163 29.27103293 59.05745871 32.13557678 59 35 C54.71 35 50.42 35 46 35 C45.93941406 33.42347656 45.87882812 31.84695312 45.81640625 30.22265625 C45.73202013 28.16926057 45.64737117 26.11587569 45.5625 24.0625 C45.52318359 23.02158203 45.48386719 21.98066406 45.44335938 20.90820312 C45.40146484 19.91884766 45.35957031 18.92949219 45.31640625 17.91015625 C45.26141968 16.53549194 45.26141968 16.53549194 45.20532227 15.13305664 C45.22996136 13.0179272 45.22996136 13.0179272 44 12 C41.69 12 39.38 12 37 12 C36.67 19.59 36.34 27.18 36 35 C31.71 35 27.42 35 23 35 C22.93941406 33.50726563 22.87882812 32.01453125 22.81640625 30.4765625 C22.73200827 28.52603138 22.6473599 26.57551108 22.5625 24.625 C22.52318359 23.64015625 22.48386719 22.6553125 22.44335938 21.640625 C22.40146484 20.69960937 22.35957031 19.75859375 22.31640625 18.7890625 C22.27974854 17.91975098 22.24309082 17.05043945 22.20532227 16.15478516 C22.12598456 13.9516738 22.12598456 13.9516738 21 12 C19.00045254 11.95745644 16.99958364 11.95919217 15 12 C13.34920558 13.65079442 13.77450553 15.63736179 13.68359375 17.91015625 C13.64169922 18.89951172 13.59980469 19.88886719 13.55664062 20.90820312 C13.51732422 21.94912109 13.47800781 22.99003906 13.4375 24.0625 C13.39431641 25.10728516 13.35113281 26.15207031 13.30664062 27.22851562 C13.20018895 29.81883972 13.09955692 32.40940175 13 35 C8.71 35 4.42 35 0 35 C0 23.45 0 11.9 0 0 Z " fill="#FEFEFE" transform="translate(173,126)"/>
<path d="M0 0 C4.27295432 2.54213738 6.85816689 5.57450066 8.4375 10.3125 C8.92738853 15.87795491 9.20564541 20.71930952 6.75 25.8125 C2.5143725 30.39155676 -1.43760486 33.90571968 -7.8203125 34.53515625 C-14.36357141 34.76527086 -20.37214406 34.25263194 -25.35546875 29.66015625 C-29.90814999 24.54514859 -30.87801499 20.60362084 -30.76953125 13.80859375 C-30.32587383 8.45959202 -27.92481769 5.45403887 -24.0625 2 C-17.69869721 -3.3171247 -7.40974231 -3.46720017 0 0 Z M-17.5625 12.3125 C-18.02767421 16.03389364 -18.07104958 18.34625579 -16.3125 21.6875 C-14.27622332 23.57832835 -13.3481547 24.23056898 -10.5625 24.3125 C-8.31893706 23.16463059 -6.3529233 22.1029233 -4.5625 20.3125 C-3.99215305 14.71041622 -3.99215305 14.71041622 -6.25 9.8125 C-10.99534128 6.73444079 -14.38937128 7.72909185 -17.5625 12.3125 Z " fill="#FEFEFE" transform="translate(150.5625,34.6875)"/>
<path d="M0 0 C4.57423748 2.67226763 6.84388686 6.40666059 8.5 11.375 C8.5 14.015 8.5 16.655 8.5 19.375 C0.58 19.705 -7.34 20.035 -15.5 20.375 C-15.5 21.035 -15.5 21.695 -15.5 22.375 C-9.66524985 23.22830338 -5.05139349 23.85851814 0.5 21.375 C3.0625 23.625 3.0625 23.625 5.5 26.375 C5.625 28.5 5.625 28.5 4.5 30.375 C-1.54758597 34.67196898 -7.28305668 35.06875156 -14.5 34.375 C-20.19660038 32.7892595 -24.35481858 30.53309752 -27.5 25.375 C-29.98441878 20.90304619 -30.04873021 16.36667481 -29.5 11.375 C-27.686034 5.93310201 -24.11737362 2.5966675 -19.5 -0.625 C-13.33349979 -2.68050007 -5.97183936 -2.71038284 0 0 Z M-14.9375 9.25 C-16.59873174 11.06967209 -16.59873174 11.06967209 -16.5 12.375 C-12.21 12.375 -7.92 12.375 -3.5 12.375 C-4.16 11.055 -4.82 9.735 -5.5 8.375 C-10.52728802 6.87763408 -10.52728802 6.87763408 -14.9375 9.25 Z " fill="#FDFDFD" transform="translate(271.5,34.625)"/>
<path d="M0 0 C4.57423748 2.67226763 6.84388686 6.40666059 8.5 11.375 C8.5 14.015 8.5 16.655 8.5 19.375 C0.58 19.705 -7.34 20.035 -15.5 20.375 C-12.0368687 23.56913909 -12.0368687 23.56913909 -9.28125 23.44921875 C-8.15203125 23.25779297 -8.15203125 23.25779297 -7 23.0625 C-4.03801584 22.59081417 -1.5446949 22.375 1.5 22.375 C4.25 24.75 4.25 24.75 6.5 27.375 C6.5 28.035 6.5 28.695 6.5 29.375 C-0.28749294 34.46561971 -6.15847071 35.18660826 -14.5 34.375 C-20.19687871 32.78677927 -24.35401868 30.53440937 -27.5 25.375 C-30.46456117 19.89056184 -30.13623238 14.54567516 -28.4375 8.75 C-22.52446618 -1.55012343 -10.9854383 -4.98585806 0 0 Z M-14.9375 8.6875 C-16.72646934 10.23628753 -16.72646934 10.23628753 -16.5 12.375 C-12.21 12.375 -7.92 12.375 -3.5 12.375 C-4.16 11.055 -4.82 9.735 -5.5 8.375 C-9.26636515 7.32878746 -11.43248628 6.80018492 -14.9375 8.6875 Z " fill="#FDFDFD" transform="translate(152.5,127.625)"/>
<path d="M0 0 C-0.4794463 4.21912747 -1.16625119 6.79663178 -4 10 C-4.845625 9.67 -5.69125 9.34 -6.5625 9 C-10.20989216 7.93894046 -13.22274664 7.84890987 -17 8 C-17 8.66 -17 9.32 -17 10 C-15.67935547 10.25523437 -15.67935547 10.25523437 -14.33203125 10.515625 C-13.17058594 10.75796875 -12.00914063 11.0003125 -10.8125 11.25 C-9.66394531 11.48203125 -8.51539062 11.7140625 -7.33203125 11.953125 C-3.72269095 13.08712641 -1.68627892 14.35791945 1 17 C2.19995014 21.04983171 2.25881937 23.25229959 0.875 27.25 C-1.96034136 31.40850067 -5.16625003 33.02808942 -10 34 C-17.57741456 34.57022512 -23.98810812 33.97474201 -31 31 C-30.39009109 27.44219804 -29.4216319 24.3171411 -28 21 C-27.236875 21.33 -26.47375 21.66 -25.6875 22 C-20.74825349 23.33945668 -16.08536891 23.16287658 -11 23 C-11 22.67 -11 22.34 -11 22 C-11.95261719 21.82984375 -12.90523437 21.6596875 -13.88671875 21.484375 C-15.14097656 21.24203125 -16.39523438 20.9996875 -17.6875 20.75 C-18.92886719 20.51796875 -20.17023437 20.2859375 -21.44921875 20.046875 C-25.21183276 18.93754546 -27.23852064 17.75635603 -30 15 C-31.16602908 11.06465184 -31.22022037 8.74874925 -30.0625 4.8125 C-23.1860442 -4.56448518 -9.9790418 -3.79142925 0 0 Z " fill="#FDFDFD" transform="translate(42,128)"/>
<path d="M0 0 C4.29 0 8.58 0 13 0 C15.31 5.94 17.62 11.88 20 18 C22.73791928 15.26208072 23.70693367 11.98967748 25.0625 8.4375 C27.88006757 1.11993243 27.88006757 1.11993243 29 0 C31.01964199 -0.07244053 33.04167124 -0.08377188 35.0625 -0.0625 C36.71958984 -0.04896484 36.71958984 -0.04896484 38.41015625 -0.03515625 C39.26480469 -0.02355469 40.11945313 -0.01195313 41 0 C40.32574837 4.21407267 38.94711857 7.86156297 37.3125 11.796875 C36.91865112 12.74823334 36.91865112 12.74823334 36.5168457 13.71881104 C35.96424994 15.05091169 35.40944136 16.38209634 34.85253906 17.71240234 C33.99779801 19.75526283 33.15072803 21.8011793 32.3046875 23.84765625 C28.14478828 33.85521172 28.14478828 33.85521172 27 35 C24.64686445 35.07271741 22.29166332 35.08370868 19.9375 35.0625 C18.64714844 35.05347656 17.35679687 35.04445312 16.02734375 35.03515625 C15.02832031 35.02355469 14.02929688 35.01195312 13 35 C11.14190899 30.50036349 9.29069085 25.99798507 7.44580078 21.49291992 C6.81715251 19.96056948 6.18662904 18.42898696 5.55419922 16.89819336 C4.64577716 14.69844294 3.74412219 12.49602414 2.84375 10.29296875 C2.55939087 9.60849167 2.27503174 8.92401459 1.98205566 8.21879578 C0.80160095 5.31408881 0 3.16794537 0 0 Z " fill="#FDFDFD" transform="translate(277,126)"/>
<path d="M0 0 C4.29 0 8.58 0 13 0 C13.49371094 1.21558594 13.98742187 2.43117187 14.49609375 3.68359375 C15.14309709 5.2682831 15.7902397 6.85291559 16.4375 8.4375 C16.76298828 9.23994141 17.08847656 10.04238281 17.42382812 10.86914062 C17.73642578 11.63291016 18.04902344 12.39667969 18.37109375 13.18359375 C18.65911865 13.89056396 18.94714355 14.59753418 19.24389648 15.32592773 C19.88053845 16.99832767 19.88053845 16.99832767 21 18 C21.49371094 16.78441406 21.98742187 15.56882812 22.49609375 14.31640625 C23.14309709 12.7317169 23.7902397 11.14708441 24.4375 9.5625 C24.76298828 8.76005859 25.08847656 7.95761719 25.42382812 7.13085938 C25.73642578 6.36708984 26.04902344 5.60332031 26.37109375 4.81640625 C26.65911865 4.10943604 26.94714355 3.40246582 27.24389648 2.67407227 C28 1 28 1 29 0 C31.01964199 -0.07244053 33.04167124 -0.08377188 35.0625 -0.0625 C36.71958984 -0.04896484 36.71958984 -0.04896484 38.41015625 -0.03515625 C39.26480469 -0.02355469 40.11945313 -0.01195312 41 0 C40.32574837 4.21407267 38.94711857 7.86156297 37.3125 11.796875 C36.91865112 12.74823334 36.91865112 12.74823334 36.5168457 13.71881104 C35.96424994 15.05091169 35.40944136 16.38209634 34.85253906 17.71240234 C33.99779801 19.75526283 33.15072803 21.8011793 32.3046875 23.84765625 C28.14478828 33.85521172 28.14478828 33.85521172 27 35 C24.64686445 35.07271741 22.29166332 35.08370868 19.9375 35.0625 C18.64714844 35.05347656 17.35679687 35.04445312 16.02734375 35.03515625 C15.02832031 35.02355469 14.02929688 35.01195312 13 35 C11.14190899 30.50036349 9.29069085 25.99798507 7.44580078 21.49291992 C6.81715251 19.96056948 6.18662904 18.42898696 5.55419922 16.89819336 C4.64577716 14.69844294 3.74412219 12.49602414 2.84375 10.29296875 C2.55939087 9.60849167 2.27503174 8.92401459 1.98205566 8.21879578 C0.80160095 5.31408881 0 3.16794537 0 0 Z " fill="#FDFDFD" transform="translate(167,33)"/>
<path d="M0 0 C4.29 0 8.58 0 13 0 C13.33 2.64 13.66 5.28 14 8 C14.969375 7.979375 15.93875 7.95875 16.9375 7.9375 C20 8 20 8 21 9 C21.07179964 10.51928038 21.08392007 12.04167482 21.0625 13.5625 C21.05347656 14.38878906 21.04445313 15.21507812 21.03515625 16.06640625 C21.02355469 16.70449219 21.01195312 17.34257812 21 18 C18.36 18 15.72 18 13 18 C13.33 22.29 13.66 26.58 14 31 C17.79788698 32.12126781 17.79788698 32.12126781 21 32 C21.66 34.97 22.32 37.94 23 41 C18.30722682 43.34638659 15.13816034 43.57982712 10 43 C5.81865877 41.4513551 3.24027764 39.89100853 1 36 C-0.26574889 32.28077896 -0.09858858 28.64756717 -0.0625 24.75 C-0.05347656 23.48671875 -0.04445312 22.2234375 -0.03515625 20.921875 C-0.02355469 19.95765625 -0.01195312 18.9934375 0 18 C-1.65 18 -3.3 18 -5 18 C-5 15.03 -5 12.06 -5 9 C-4.01 8.67 -3.02 8.34 -2 8 C-1.34 8.33 -0.68 8.66 0 9 C0 6.03 0 3.06 0 0 Z " fill="#FDFDFD" transform="translate(247,119)"/>
<path d="M0 0 C4.29 0 8.58 0 13 0 C13 2.97 13 5.94 13 9 C14.32 8.67 15.64 8.34 17 8 C18.32 8.33 19.64 8.66 21 9 C21 11.97 21 14.94 21 18 C18.36 18 15.72 18 13 18 C13.33 22.29 13.66 26.58 14 31 C17.79788698 32.12126781 17.79788698 32.12126781 21 32 C21.66 34.97 22.32 37.94 23 41 C18.30722682 43.34638659 15.13816034 43.57982712 10 43 C5.81865877 41.4513551 3.24027764 39.89100853 1 36 C-0.26574889 32.28077896 -0.09858858 28.64756717 -0.0625 24.75 C-0.05347656 23.48671875 -0.04445313 22.2234375 -0.03515625 20.921875 C-0.02355469 19.95765625 -0.01195312 18.9934375 0 18 C-1.65 18 -3.3 18 -5 18 C-5 14.7 -5 11.4 -5 8 C-3.68 8 -2.36 8 -1 8 C-0.67 5.36 -0.34 2.72 0 0 Z " fill="#FDFDFD" transform="translate(56,119)"/>
<path d="M0 0 C4.29 0 8.58 0 13 0 C13 0.99 13 1.98 13 3 C13.70125 2.505 14.4025 2.01 15.125 1.5 C18.37119719 -0.1936681 20.39340156 -0.25162315 24 0 C24 3.63 24 7.26 24 11 C21.68880208 11.71614583 19.37760417 12.43229167 17.06640625 13.1484375 C14.82201984 13.80882227 14.82201984 13.80882227 14 16 C13.84932786 17.4465242 13.75138964 18.8987934 13.68359375 20.3515625 C13.64169922 21.20234375 13.59980469 22.053125 13.55664062 22.9296875 C13.51732422 23.81914062 13.47800781 24.70859375 13.4375 25.625 C13.39431641 26.5221875 13.35113281 27.419375 13.30664062 28.34375 C13.20043285 30.56231239 13.09970041 32.78113565 13 35 C8.71 35 4.42 35 0 35 C0 23.45 0 11.9 0 0 Z " fill="#FEFEFE" transform="translate(90,126)"/>
<path d="M0 0 C4.29 0 8.58 0 13 0 C13 11.55 13 23.1 13 35 C8.71 35 4.42 35 0 35 C0 23.45 0 11.9 0 0 Z " fill="#FEFEFE" transform="translate(217,33)"/>
<path d="M0 0 C2.47811355 1.51884379 2.8755497 2.68472591 3.9375 5.375 C4 8 4 8 2.5625 10.8125 C-0.52301376 13.44647516 -2.13920708 13.69466847 -6.08984375 13.4140625 C-8 13 -8 13 -10.5625 11.4375 C-12 9 -12 9 -11.9375 5.375 C-10.20013627 -0.87950944 -5.59591898 -0.7476802 0 0 Z " fill="#FEFEFE" transform="translate(228,17)"/>
</svg>
